<svg xmlns="http://www.w3.org/2000/svg" width="107.008" height="90.977" viewBox="0 0 107.008 90.977">
  <g id="Group_132" data-name="Group 132" transform="translate(-904.571 -1330.023)">
    <g id="server" transform="translate(913.763 1333.5)">
      <path id="Path_9" data-name="Path 9" d="M12.636,6.5a6.636,6.636,0,1,0,6.636,6.636A6.644,6.644,0,0,0,12.636,6.5Zm0,10.322a3.686,3.686,0,1,1,3.686-3.686A3.691,3.691,0,0,1,12.636,16.822Z" transform="translate(2.847 2.847)" fill="#0572b5"/>
      <circle id="Ellipse_32" data-name="Ellipse 32" cx="1.475" cy="1.475" r="1.475" transform="translate(72.254 12.297)" fill="#0572b5"/>
      <circle id="Ellipse_33" data-name="Ellipse 33" cx="1.475" cy="1.475" r="1.475" transform="translate(66.356 12.297)" fill="#0572b5"/>
      <circle id="Ellipse_34" data-name="Ellipse 34" cx="1.475" cy="1.475" r="1.475" transform="translate(75.203 16.72)" fill="#0572b5"/>
      <circle id="Ellipse_35" data-name="Ellipse 35" cx="1.475" cy="1.475" r="1.475" transform="translate(69.305 16.72)" fill="#0572b5"/>
      <circle id="Ellipse_36" data-name="Ellipse 36" cx="1.475" cy="1.475" r="1.475" transform="translate(60.458 12.297)" fill="#0572b5"/>
      <circle id="Ellipse_37" data-name="Ellipse 37" cx="1.475" cy="1.475" r="1.475" transform="translate(63.407 16.72)" fill="#0572b5"/>
      <circle id="Ellipse_38" data-name="Ellipse 38" cx="1.475" cy="1.475" r="1.475" transform="translate(54.559 12.297)" fill="#0572b5"/>
      <circle id="Ellipse_39" data-name="Ellipse 39" cx="1.475" cy="1.475" r="1.475" transform="translate(57.508 16.72)" fill="#0572b5"/>
      <circle id="Ellipse_40" data-name="Ellipse 40" cx="1.475" cy="1.475" r="1.475" transform="translate(48.661 12.297)" fill="#0572b5"/>
      <circle id="Ellipse_41" data-name="Ellipse 41" cx="1.475" cy="1.475" r="1.475" transform="translate(51.61 16.72)" fill="#0572b5"/>
      <path id="Path_10" data-name="Path 10" d="M88.475,24.671V7.295A6.8,6.8,0,0,0,81.68.5H6.795A6.8,6.8,0,0,0,0,7.295V24.67a6.755,6.755,0,0,0,2.62,5.32A6.762,6.762,0,0,0,0,35.312V52.687a6.755,6.755,0,0,0,2.62,5.32A6.762,6.762,0,0,0,0,63.329V80.7a6.8,6.8,0,0,0,6.795,6.8H81.678a6.8,6.8,0,0,0,6.795-6.795V63.329a6.755,6.755,0,0,0-2.62-5.32,6.754,6.754,0,0,0,2.622-5.32V35.312a6.755,6.755,0,0,0-2.62-5.32A6.757,6.757,0,0,0,88.475,24.671ZM85.525,63.329V80.7a3.85,3.85,0,0,1-3.846,3.846H6.795a3.848,3.848,0,0,1-3.846-3.844V63.329a3.85,3.85,0,0,1,3.846-3.846H81.678A3.85,3.85,0,0,1,85.525,63.329Zm0-28.017V52.687a3.85,3.85,0,0,1-3.846,3.846H6.795a3.848,3.848,0,0,1-3.846-3.844V35.312a3.85,3.85,0,0,1,3.846-3.846H81.678A3.85,3.85,0,0,1,85.525,35.312ZM6.795,28.517a3.85,3.85,0,0,1-3.846-3.846V7.295A3.85,3.85,0,0,1,6.795,3.449H81.678a3.85,3.85,0,0,1,3.847,3.846V24.67a3.85,3.85,0,0,1-3.846,3.846H6.795Z" transform="translate(0)" fill="#0572b5"/>
      <path id="Path_11" data-name="Path 11" d="M12.636,38.771A6.636,6.636,0,1,0,6,32.136,6.644,6.644,0,0,0,12.636,38.771Zm0-10.322a3.686,3.686,0,1,1-3.686,3.686A3.691,3.691,0,0,1,12.636,28.449Z" transform="translate(2.847 11.864)" fill="#0572b5"/>
      <circle id="Ellipse_42" data-name="Ellipse 42" cx="1.475" cy="1.475" r="1.475" transform="translate(72.254 40.314)" fill="#0572b5"/>
      <circle id="Ellipse_43" data-name="Ellipse 43" cx="1.475" cy="1.475" r="1.475" transform="translate(66.356 40.314)" fill="#0572b5"/>
      <circle id="Ellipse_44" data-name="Ellipse 44" cx="1.475" cy="1.475" r="1.475" transform="translate(75.203 44.737)" fill="#0572b5"/>
      <circle id="Ellipse_45" data-name="Ellipse 45" cx="1.475" cy="1.475" r="1.475" transform="translate(69.305 44.737)" fill="#0572b5"/>
      <circle id="Ellipse_46" data-name="Ellipse 46" cx="1.475" cy="1.475" r="1.475" transform="translate(60.458 40.314)" fill="#0572b5"/>
      <circle id="Ellipse_47" data-name="Ellipse 47" cx="1.475" cy="1.475" r="1.475" transform="translate(63.407 44.737)" fill="#0572b5"/>
      <circle id="Ellipse_48" data-name="Ellipse 48" cx="1.475" cy="1.475" r="1.475" transform="translate(54.559 40.314)" fill="#0572b5"/>
      <circle id="Ellipse_49" data-name="Ellipse 49" cx="1.475" cy="1.475" r="1.475" transform="translate(57.508 44.737)" fill="#0572b5"/>
      <circle id="Ellipse_50" data-name="Ellipse 50" cx="1.475" cy="1.475" r="1.475" transform="translate(48.661 40.314)" fill="#0572b5"/>
      <circle id="Ellipse_51" data-name="Ellipse 51" cx="1.475" cy="1.475" r="1.475" transform="translate(51.61 44.737)" fill="#0572b5"/>
      <path id="Path_12" data-name="Path 12" d="M12.636,57.771A6.636,6.636,0,1,0,6,51.136,6.644,6.644,0,0,0,12.636,57.771Zm0-10.322a3.686,3.686,0,1,1-3.686,3.686A3.691,3.691,0,0,1,12.636,47.449Z" transform="translate(2.847 20.881)" fill="#0572b5"/>
      <circle id="Ellipse_52" data-name="Ellipse 52" cx="1.475" cy="1.475" r="1.475" transform="translate(72.254 68.331)" fill="#0572b5"/>
      <circle id="Ellipse_53" data-name="Ellipse 53" cx="1.475" cy="1.475" r="1.475" transform="translate(66.356 68.331)" fill="#0572b5"/>
      <circle id="Ellipse_54" data-name="Ellipse 54" cx="1.475" cy="1.475" r="1.475" transform="translate(75.203 72.754)" fill="#0572b5"/>
      <circle id="Ellipse_55" data-name="Ellipse 55" cx="1.475" cy="1.475" r="1.475" transform="translate(69.305 72.754)" fill="#0572b5"/>
      <circle id="Ellipse_56" data-name="Ellipse 56" cx="1.475" cy="1.475" r="1.475" transform="translate(60.458 68.331)" fill="#0572b5"/>
      <circle id="Ellipse_57" data-name="Ellipse 57" cx="1.475" cy="1.475" r="1.475" transform="translate(63.407 72.754)" fill="#0572b5"/>
      <circle id="Ellipse_58" data-name="Ellipse 58" cx="1.475" cy="1.475" r="1.475" transform="translate(54.559 68.331)" fill="#0572b5"/>
      <circle id="Ellipse_59" data-name="Ellipse 59" cx="1.475" cy="1.475" r="1.475" transform="translate(57.508 72.754)" fill="#0572b5"/>
      <circle id="Ellipse_60" data-name="Ellipse 60" cx="1.475" cy="1.475" r="1.475" transform="translate(48.661 68.331)" fill="#0572b5"/>
      <circle id="Ellipse_61" data-name="Ellipse 61" cx="1.475" cy="1.475" r="1.475" transform="translate(51.61 72.754)" fill="#0572b5"/>
    </g>
    <path id="Path_41" data-name="Path 41" d="M651.744,1204.4l105.076,88.485" transform="translate(253.793 126.773)" fill="#b3babe" stroke="#74848f" stroke-width="3"/>
    <path id="Path_42" data-name="Path 42" d="M756.82,1204.4l-105.076,88.485" transform="translate(253.793 126.773)" fill="#b3babe" stroke="#74848f" stroke-width="3"/>
  </g>
</svg>
