<svg xmlns="http://www.w3.org/2000/svg" xmlns:xlink="http://www.w3.org/1999/xlink" width="117.102" height="159.817" viewBox="0 0 117.102 159.817">
  <defs>
    <clipPath id="clip-path">
      <path id="path16" d="M0-1122.517H117.1V-962.7H0Z" transform="translate(0 1122.517)"/>
    </clipPath>
  </defs>
  <g id="Group_127" data-name="Group 127" transform="translate(1015.589 -948.702)">
    <g id="g14" transform="translate(-1015.589 948.702)" clip-path="url(#clip-path)">
      <g id="g20" transform="translate(11.598 30.058)">
        <path id="path22" d="M-20.865-14.43l.28-.5-46.29-31.321c-.28.5,46.01,31.821,46.01,31.821" transform="translate(66.876 46.251)" fill="#0572b5"/>
      </g>
      <g id="g24" transform="translate(6.18 25.027)">
        <path id="path26" d="M-4.792-2.4a5.284,5.284,0,0,1-5.289,5.267A5.275,5.275,0,0,1-15.36-2.4a5.283,5.283,0,0,1,5.278-5.289A5.292,5.292,0,0,1-4.792-2.4" transform="translate(15.36 7.688)" fill="#0572b5"/>
      </g>
      <g id="g28" transform="translate(31.69 119.209)">
        <path id="path30" d="M-10.281-5.138A11.342,11.342,0,0,1-21.622,6.193,11.333,11.333,0,0,1-32.953-5.138,11.333,11.333,0,0,1-21.622-16.469,11.342,11.342,0,0,1-10.281-5.138" transform="translate(32.953 16.469)" fill="#0572b5"/>
      </g>
      <g id="g32" transform="translate(101.598 25.656)">
        <path id="path34" d="M-3.071-1.533A3.391,3.391,0,0,1-6.457,1.842,3.385,3.385,0,0,1-9.844-1.533,3.382,3.382,0,0,1-6.457-4.915,3.388,3.388,0,0,1-3.071-1.533" transform="translate(9.844 4.915)" fill="#0572b5"/>
      </g>
      <g id="g36" transform="translate(54.179 49.216)">
        <path id="path38" d="M-11.7-12.387H4.281c-.56-4.4-3.354-7.67-8.03-7.67-4.472,0-7.472,3.413-7.955,7.67M-21.756-8.958c0-10.2,7.4-19.479,18.006-19.479,8.019,0,14.007,5.386,16.619,11.572A25.229,25.229,0,0,0-12.2-39.7,25.311,25.311,0,0,0-37.516-14.387,25.32,25.32,0,0,0-12.2,10.935a24.87,24.87,0,0,0,6.192-.855c-9.557-1.371-15.749-9-15.749-19.038M-11.49-5.679c.7,4.951,4.806,7.267,9.482,7.267,5.171,0,8.74-4.053,11.384-4.053a2.936,2.936,0,0,1,.571.135,25.039,25.039,0,0,0,1.612-3.585,6.034,6.034,0,0,1-1.623.236H-11.49" transform="translate(37.516 39.703)" fill="#0572b5"/>
      </g>
      <g id="g40" transform="translate(90.73 29.175)">
        <path id="path42" d="M0-10.28l.483.285L14.491-32.946C14.008-33.236,0-10.28,0-10.28" transform="translate(0 32.949)" fill="#0572b5"/>
      </g>
      <g id="g44" transform="translate(42.785 95.181)">
        <path id="path46" d="M0-15.971l.473.285,21.672-35.5C21.651-51.473,0-15.971,0-15.971" transform="translate(0 51.19)" fill="#0572b5"/>
      </g>
    </g>
  </g>
</svg>
